<?xml version="1.0" standalone="no"?>
<!DOCTYPE svg PUBLIC "-//W3C//DTD SVG 20010904//EN"
 "http://www.w3.org/TR/2001/REC-SVG-20010904/DTD/svg10.dtd">
<svg version="1.0" xmlns="http://www.w3.org/2000/svg"
 width="800.000000pt" height="800.000000pt" viewBox="0 0 800.000000 800.000000"
 preserveAspectRatio="xMidYMid meet">

<g transform="translate(0.000000,800.000000) scale(0.100000,-0.100000)"
fill="#000000" stroke="none">
<path d="M3825 7495 c-78 -17 -157 -47 -223 -86 -51 -29 -2385 -1774 -2524
-1886 -121 -98 -211 -238 -265 -410 l-28 -88 0 -1920 0 -1920 22 -85 c13 -47
44 -128 69 -180 41 -82 61 -109 148 -196 91 -91 112 -106 206 -152 200 -96
-95 -87 2765 -87 l2520 0 85 23 c301 80 520 301 590 596 19 79 20 133 20 1991
0 1858 -1 1912 -20 1991 -34 144 -97 260 -199 367 -84 89 -2546 1934 -2643
1981 -108 52 -221 76 -353 75 -60 0 -137 -7 -170 -14z m-1557 -3010 c49 -21
81 -52 103 -100 18 -38 19 -84 19 -867 l0 -828 705 0 705 0 0 628 0 628 23 44
c13 26 40 57 65 75 l44 30 696 0 c789 0 756 3 928 -81 211 -103 364 -292 427
-526 22 -82 22 -88 22 -868 l0 -785 -27 -47 c-33 -55 -108 -98 -173 -98 -53 0
-121 35 -159 83 l-31 39 -3 239 -3 239 -1610 0 -1609 0 0 -222 c0 -195 -3
-228 -19 -263 -66 -147 -281 -152 -355 -10 -21 40 -21 45 -24 1280 -2 908 0
1251 9 1280 32 115 157 175 267 130z m918 -596 c257 -46 442 -301 405 -557
-49 -343 -414 -535 -723 -381 -139 70 -245 219 -269 379 -31 204 87 424 275
515 108 51 200 65 312 44z"/>
</g>
</svg>
